Coordinates
version=1
nRows=43
nColumns=12
inDegrees=yes

Units are S.I. units (second, meters, Newtons, ...)
Angles are in degrees

endheader
time	SC_y	SC_z	SC_x	AC_y	AC_z	AC_x	GH_y	GH_z	GH_yy	EL_x	PS_y
       0.0              -42.04          13.67          21.85          53.48         -14.16         -16.09         -126.8          79.93          7.999          70.32          19.06
   0.01465              -42.04          13.67          21.86          53.48         -14.16         -16.09         -126.7          79.92          7.984          70.32          19.07
    0.0293              -42.03          13.67          21.86          53.48         -14.16         -16.09         -126.7          79.92          7.967          70.32          19.07
   0.04396              -42.03          13.68          21.86          53.48         -14.15         -16.09         -126.7          79.92          7.949          70.33          19.07
   0.05861              -42.02          13.68          21.87          53.48         -14.15         -16.08         -126.7          79.91           7.93          70.33          19.07
   0.07326              -42.02          13.69          21.87          53.49         -14.15         -16.08         -126.7           79.9           7.91          70.33          19.08
   0.08791              -42.01          13.69          21.88          53.49         -14.14         -16.07         -126.7           79.9          7.888          70.33          19.08
    0.1026               -42.0           13.7          21.88          53.49         -14.14         -16.07         -126.7          79.89          7.865          70.34          19.08
    0.1172               -42.0           13.7          21.89          53.49         -14.13         -16.07         -126.7          79.89          7.841          70.34          19.09
    0.1319              -41.99          13.71           21.9          53.49         -14.12         -16.06         -126.7          79.88          7.814          70.35          19.09
    0.1465              -41.98          13.71           21.9           53.5         -14.12         -16.06         -126.7          79.87          7.786          70.35          19.09
    0.1612              -41.97          13.72          21.91           53.5         -14.11         -16.05         -126.6          79.86          7.755          70.35           19.1
    0.1758              -41.96          13.73          21.92           53.5          -14.1         -16.05         -126.6          79.86          7.722          70.36           19.1
    0.1905              -41.95          13.74          21.93           53.5          -14.1         -16.04         -126.6          79.85          7.686          70.36           19.1
    0.2051              -41.94          13.74          21.94          53.51         -14.09         -16.03         -126.6          79.84          7.648          70.37          19.11
    0.2198              -41.93          13.75          21.95          53.51         -14.08         -16.02         -126.6          79.82          7.606          70.38          19.12
    0.2344              -41.92          13.76          21.96          53.51         -14.07         -16.02         -126.6          79.81          7.561          70.38          19.12
    0.2491               -41.9          13.78          21.97          53.52         -14.06         -16.01         -126.5           79.8          7.511          70.39          19.13
    0.2637              -41.89          13.79          21.98          53.52         -14.05          -16.0         -126.5          79.79          7.457           70.4          19.13
    0.2784              -41.87           13.8           22.0          53.53         -14.03         -15.99         -126.5          79.77          7.398          70.41          19.14
     0.293              -41.85          13.82          22.01          53.53         -14.02         -15.98         -126.5          79.75          7.333          70.42          19.15
    0.3077              -41.83          13.83          22.03          53.54          -14.0         -15.96         -126.4          79.73          7.261          70.43          19.16
    0.3223              -41.81          13.85          22.05          53.54         -13.99         -15.95         -126.4          79.71          7.182          70.44          19.17
     0.337              -41.78          13.87          22.07          53.55         -13.97         -15.93         -126.3          79.69          7.094          70.45          19.18
    0.3516              -41.76          13.89          22.09          53.56         -13.95         -15.92         -126.3          79.66          6.997          70.47          19.19
    0.3663              -41.73          13.91          22.12          53.57         -13.92          -15.9         -126.2          79.63          6.888          70.48          19.21
    0.3809              -41.69          13.94          22.15          53.58          -13.9         -15.88         -126.2           79.6          6.766           70.5          19.22
    0.3956              -41.65          13.97          22.18          53.59         -13.87         -15.85         -126.1          79.57           6.63          70.52          19.24
    0.4102              -41.61          14.01          22.22           53.6         -13.83         -15.83         -126.1          79.53          6.475          70.54          19.26
    0.4249              -41.56          14.05          22.26          53.62         -13.79         -15.79         -126.0          79.48          6.299          70.57          19.28
    0.4396               -41.5          14.09          22.31          53.63         -13.75         -15.76         -125.9          79.43          6.099           70.6          19.31
    0.4542              -41.44          14.14          22.36          53.65          -13.7         -15.72         -125.8          79.36          5.868          70.63          19.34
    0.4689              -41.36           14.2          22.43          53.67         -13.64         -15.67         -125.7          79.29          5.603          70.67          19.37
    0.4835              -41.28          14.27           22.5           53.7         -13.58         -15.62         -125.5          79.21          5.294          70.72          19.41
    0.4982              -41.17          14.35          22.59          53.73          -13.5         -15.55         -125.4          79.12          4.933          70.77          19.46
    0.5128              -41.05          14.45          22.69          53.76          -13.4         -15.48         -125.2           79.0          4.507          70.84          19.51
    0.5275              -40.91          14.56          22.81           53.8         -13.29         -15.39         -124.9          78.87          4.001          70.91          19.58
    0.5421              -40.74           14.7          22.96          53.85         -13.16         -15.28         -124.6          78.71          3.394           71.0          19.66
    0.5568              -40.53          14.86          23.14          53.91          -13.0         -15.15         -124.3          78.52           2.66          71.11          19.75
    0.5714              -40.28          15.06          23.35          53.98         -12.81         -14.99         -123.9          78.28          1.763          71.24          19.87
    0.5861              -39.96          15.31          23.62          54.07         -12.57          -14.8         -123.4          77.99         0.6569          71.41          20.01
    0.6007              -39.57          15.62          23.95          54.18         -12.27         -14.56         -122.8          77.62         -0.723          71.61          20.19
    0.6154              -39.08          16.01          24.37          54.32         -11.89         -14.25         -122.0          77.16         -2.461          71.87          20.41
